<svg width="20" height="20" xmlns="http://www.w3.org/2000/svg"><path d="M13.166 1.354c1.094 0 1.794-.196 2.566-.854L19.5 4.267a6.033 6.033 0 0 0-1.1 3.483c0 .933.21 1.816.586 2.605a5.241 5.241 0 0 1-4.728 7.507h-.822A4.414 4.414 0 0 0 10 19.5a4.414 4.414 0 0 0-3.436-1.638H5.74a5.241 5.241 0 0 1-4.728-7.507 6.024 6.024 0 0 0 .587-2.605A6.033 6.033 0 0 0 .5 4.267L4.267.5c.772.658 1.472.854 2.566.854C7.927 1.354 8.5.5 10 .5c1.5 0 2.072.854 3.166.854Z" fill="#fff" fill-rule="evenodd" stroke="#000" stroke-linecap="round" stroke-linejoin="round" stroke-miterlimit="3.864" stroke-width="1.178" style="fill:#006747;stroke:#fff;stroke-width:1;stroke-miterlimit:3.864;stroke-dasharray:none;stroke-opacity:1"/></svg>