<svg width="25" height="20" xmlns="http://www.w3.org/2000/svg"><path d="M7.89 1.46c-1.507 0-2.415-.224-3.61-.96L.5 4.267A6.018 6.018 0 0 1 1.604 7.75c0 .936-.212 1.822-.592 2.613A5.205 5.205 0 0 0 .5 12.621c0 2.895 2.355 5.241 5.26 5.241h3.292c1.392 0 2.634.639 3.448 1.638a4.436 4.436 0 0 1 3.448-1.638h3.292c2.905 0 5.26-2.346 5.26-5.241 0-.809-.184-1.574-.511-2.258a6.019 6.019 0 0 1-.593-2.613c0-1.296.408-2.497 1.104-3.483L20.72.5c-1.195.736-2.103.96-3.61.96C15.603 1.46 15 .5 12.5.5c-2 0-3.103.96-4.61.96Z" fill="#fff" fill-rule="evenodd" stroke="#000" stroke-width="1.159" style="fill:#006747;stroke:#fff;stroke-width:1;stroke-linejoin:round;stroke-miterlimit:4;stroke-dasharray:none;stroke-opacity:1"/></svg>