<svg width="26" height="20" xmlns="http://www.w3.org/2000/svg" xml:space="preserve" style="fill-rule:evenodd;clip-rule:evenodd;stroke-linejoin:round;stroke-miterlimit:2">
 <path d="M11.516 2.006c0-.555-.341-1.006-.76-1.006H1.962c-.419 0-.76.451-.76 1.006v8.487c0 .555.341 1.006.76 1.006h8.794c.419 0 .76-.451.76-1.006V2.006Z" style="fill:#006747" transform="matrix(2.521 0 0 1.90494 -3.031 -1.905)"/>
 <path d="M16 248c0-59.995 7.671-112 29.333-112h293.334C360.347 136 368 187.527 368 248s-7.131 112-29.333 112H45.333C23.743 360 16 307.995 16 248Z" style="fill:#fff;fill-rule:nonzero" transform="matrix(.06818 0 0 .0625 -.09 -3.5)"/>
 <path d="M11.235 3.167c0-.434-.139-.786-.309-.786H3.309c-.171 0-.309.352-.309.786v1.047c0 .434.138.786.309.786h7.617c.17 0 .309-.352.309-.786V3.167Z" style="fill:#fff" transform="matrix(2.91445 0 0 1.14559 -7.743 -1.728)"/>
</svg>
