<svg width="20" height="20" xml:space="preserve" xmlns="http://www.w3.org/2000/svg">
 <rect fill="#fff" x=".5" y=".5" stroke="#666" width="19" height="19" ry="1.5" rx="1.5" style="stroke:#9bcbeb;stroke-width:1;stroke-miterlimit:4;stroke-opacity:1;fill:#9bcbeb;fill-opacity:1"/>
 <path fill="#fff" d="M117.19 116.436c-3.346-.304-20.934-2.89-22.76-8.063-6.406-18.148-18.623-29.43-3.866-40.992 11.173-11.093 21.605-9.737 21.757-16.584-4.736-14.688-16.696-9.084-23.735-20.996C76.719 9.717 68.731 6.587 62.418 6.587c-26.26-2.56-56.952 0-56.952 0v140.79h187.95v-29.418z" style="stroke-width:0;stroke-dasharray:none" transform="matrix(.09577 0 0 .12726 .477 .245)"/>
 <path fill="#d93f27" d="m47.183 51.641 55.483 7.95h46.542s-2.604-12.775-18.842-18.903c-18.125-1.12-21.064.766-25.746.627-.32-.306-15.156-1.164-15.156-1.164z" style="fill:#ff6720;fill-opacity:1;stroke:none" transform="matrix(.09577 0 0 .12726 .477 .245)"/>
 <path fill="#d93f27" d="M27.064 33.028s4.901-5.004 12.766-4.698c7.864.307 12.766 4.698 12.766 4.698s-5.515 5.719-12.255 5.719c-9.397-.306-13.277-5.719-13.277-5.719z" style="fill:#000;fill-opacity:1;stroke:none;stroke-width:0;stroke-dasharray:none" transform="matrix(.09577 0 0 .12726 .477 .245)"/>
 <rect fill="#fff" x=".5" y=".5" stroke="#666" width="19" height="19" ry="1.5" rx="1.5" style="stroke:#003f87;stroke-width:1;stroke-miterlimit:4;stroke-opacity:1;fill:none;fill-opacity:1"/>
</svg>
