<svg width="20" height="20" xmlns="http://www.w3.org/2000/svg" xml:space="preserve" style="fill-rule:evenodd;clip-rule:evenodd;stroke-linejoin:round;stroke-miterlimit:2"><path d="M11.516 2.006A.998.998 0 0 0 10.528 1H2.19a.998.998 0 0 0-.988 1.006v8.487a.998.998 0 0 0 .988 1.006h8.338a.998.998 0 0 0 .988-1.006V2.006Z" style="fill:#006747" transform="matrix(1.93923 0 0 1.90494 -2.332 -1.905)"/><path d="M16 248c0-59.995 11.051-112 39.111-112h273.778C356.827 136 368 187.527 368 248s-9.155 112-39.111 112H55.111C28.413 360 16 307.995 16 248Z" style="fill:#fff;fill-rule:nonzero" transform="matrix(.05114 0 0 .0625 .182 -3.5)"/><path d="M11.235 3.167c0-.434-.185-.786-.412-.786H3.412c-.228 0-.412.352-.412.786v1.047c0 .434.184.786.412.786h7.411c.227 0 .412-.352.412-.786V3.167Z" style="fill:#fff" transform="matrix(2.18584 0 0 1.14559 -5.558 -1.728)"/></svg>