<svg width="20" height="20" viewBox="0 0 5.292 5.292" xmlns="http://www.w3.org/2000/svg"><rect style="fill:#fff;fill-rule:evenodd;stroke:#693f23;stroke-width:.26458299;stroke-linecap:round;stroke-linejoin:round;stroke-miterlimit:4;stroke-dasharray:none" width="5.027" height="5.027" x=".132" y=".132" rx=".397" ry=".397"/><path style="fill:#693f23;stroke-width:.0105279" d="M3.717 4.315a.741.741 0 0 0-.016.156l-.005.148h-.249l-.002-.522-.003-.522.022-.022c.049-.046.281-.119.38-.118.09 0 .21.026.27.059.073.038.17.139.202.21a.326.326 0 0 1 .006.243c-.023.052-.134.156-.169.19-.094.096-.218.129-.364.162-.032.012-.067.01-.072.016zm.15-.302c.11-.059.165-.125.165-.202 0-.04-.006-.052-.037-.083-.045-.043-.085-.052-.177-.037-.103.016-.107.024-.107.194 0 .12.002.14.018.15.023.013.09.003.137-.022zm-.965.59a1.913 1.913 0 0 1-.317-.25l-.056-.06-.063.007a.225.225 0 0 0-.073.015.741.741 0 0 0-.015.157l-.006.147h-.248l-.003-.521-.002-.522.022-.022c.048-.046.281-.119.38-.118.09 0 .209.026.27.058.073.039.17.14.202.211a.326.326 0 0 1 .005.243.635.635 0 0 1-.168.19c-.016.01-.028.025-.028.036 0 .026.076.093.219.193l.11.078-.029.05c-.08.14-.089.151-.109.15a.344.344 0 0 1-.091-.042Zm-.36-.59c.112-.058.166-.124.166-.201 0-.04-.005-.052-.036-.083-.045-.044-.086-.052-.177-.038-.103.017-.107.025-.107.195 0 .12.002.14.018.15.023.013.09.003.137-.022zm-1.522.602a1.482 1.482 0 0 1-.147-.033l-.065-.018V4.04c0-.432.003-.524.014-.534a.71.71 0 0 1 .132-.042.848.848 0 0 1 .237-.029c.107 0 .124.003.178.029a.393.393 0 0 1 .18.175.285.285 0 0 1-.017.204.343.343 0 0 0-.02.06c0 .005.024.025.054.045.122.082.176.195.15.314-.036.16-.246.328-.446.356a.674.674 0 0 1-.25-.004zm.316-.269a.34.34 0 0 0 .09-.044c.028-.021.034-.033.034-.066 0-.047-.025-.077-.086-.103a.658.658 0 0 0-.282-.002l-.051.014-.003.094c-.002.058.001.1.008.108.024.03.19.03.29-.001zm-.083-.463A.1.1 0 0 0 1.3 3.75c-.026-.058-.08-.084-.175-.084-.05 0-.08.005-.086.013a.426.426 0 0 0-.005.105c.002.07.007.094.02.105.026.02.155.017.199-.006zm2.815-1.507c-.481.023-.763.012-1.245.039-.484.075-.983.148-1.424.374-.117.053-.167.134-.167.134h1.293c.356-.307.74-.422 1.135-.493.155.004.304.004.414-.013.014.043.02.05.028.094.012.06-.028.356.09.275.041-.056.021-.212.01-.297l-.027-.18c-.007-.054.006-.13-.033-.15.153-.06.016-.325-.152-.23-.156.01-.423-.185-.135-.21.118.004.155-.123.285-.041.09-.052.046-.256-.11-.187-.173.008-.347.077-.517.07a1.085 1.085 0 0 1-.585-.142c-.036-.053.056-.093.07-.073.103.086.118-.168.238-.081.079-.054.154-.005.196-.094.083.027.062-.172.158-.05.08-.006.086-.01.143-.01.082-.06.12-.027.226.031.08-.043.325.018.214-.115-.178.04-.197-.217-.302-.165.093.082-.2.05-.022.01C3.792.825 3.514.864 3.568.71c.107.115.113-.115.218-.053.181.017.157-.181.303-.081.13.059.144-.078.115-.181-.018-.066.024-.148-.013-.206.15-.005.225-.004.203.263-.054.153.057.183.135.244-.006.127.084.152.173.192.002.15-.252.095-.21.145-.215.054.015.091.084.105.088.074.208.086.333.125.157.015-.122.238-.206.184-.019.08-.396.018-.256.107.165-.069.33 0 .464.033.194.094-.29.12-.18.196-.008.11-.472.146-.244.22.147-.108.062.117-.001.149-.057-.002-.065.058-.075.108a.94.94 0 0 0-.002.274c.006.059.012.233.076.168a.503.503 0 0 0 .015-.215c-.007-.061.008-.11.012-.164.077-.024.091.012.143-.018.169-.016.384-.064.516-.112l-.012.983a586.05 586.05 0 0 0-5.027 0L.125 1.928c.196-.045.349-.223.504-.341.103-.06.28.14.366-.065.147-.239.33.025.491.106.16.165.367.244.569.332.188.096.375.17.567.25.207.051.317.053.527.085.3.042.607.056.908.043z"/></svg>