<svg width="27" height="26" xml:space="preserve" xmlns="http://www.w3.org/2000/svg">
 <path fill="#fff" d="M25.971 12.515c-.042-.25-.266-.556-.481-.686-.067-.484-.184-.92-.62-1.143l-.02-3.281c-.55-.08-1.113-.339-1.623-.435-.6-.513-1.172-.462-1.894-.383-.397.23-.863.362-1.282.416a1.395 1.395 0 0 0-1.429-.155c-.638.134-1.407-.05-1.935-.482-.76.138-1.357.012-1.96-.343-.163-.256-.519-.248-.661-.122-.28-.16-1.737-.329-2.066-.286V1H6v10.5H1c.15.964.816 1.58 1.707 1.97a2.865 2.865 0 0 1 1.282 1.11c.193.266.303.602.392.915.055.39.152.727.351 1.07.428.72.834.994 1.61 1.298.702.543 1.254.457 1.673-.122.014-.584.325-1.09.865-1.356 1.166-.26 2.44.274 3.063 1.266a13.642 13.642 0 0 0 2.572 3.756c.191.955.523 1.714 1.135 2.499.597.083 1.285.37 1.772.726.488-.133.968-.043 1.396.221.367.29.915.057.947-.392a3.676 3.676 0 0 1-.514-3.822 3.86 3.86 0 0 1 .596-.922c.28-.328.319-.291.67-.523.77-.48 1.54-.955 2.319-1.42-.117-.51.617-1.338.881-.98a7.895 7.895 0 0 1 1.773-1.07v-.009c.221-.37.33-.765.35-1.2l-.22-.914c.306-.276.444-.682.351-1.086z" style="stroke:#000;stroke-width:2;stroke-linejoin:round;stroke-miterlimit:4;stroke-dasharray:none;stroke-opacity:1;fill:none"/>
 <path fill="#fff" fill-rule="evenodd" d="M25.971 12.515c-.042-.25-.266-.556-.481-.686-.067-.484-.184-.92-.62-1.143l-.02-3.281c-.55-.08-1.113-.339-1.623-.435-.6-.513-1.172-.462-1.894-.383-.397.23-.863.362-1.282.416a1.395 1.395 0 0 0-1.429-.155c-.638.134-1.407-.05-1.935-.482-.76.138-1.357.012-1.96-.343-.163-.256-.519-.248-.661-.122-.28-.16-1.737-.329-2.066-.286V1H6v10.5H1c.15.964.816 1.58 1.707 1.97a2.865 2.865 0 0 1 1.282 1.11c.193.266.303.602.392.915.055.39.152.727.351 1.07.428.72.834.994 1.61 1.298.702.543 1.254.457 1.673-.122.014-.584.325-1.09.865-1.356 1.166-.26 2.44.274 3.063 1.266a13.642 13.642 0 0 0 2.572 3.756c.191.955.523 1.714 1.135 2.499.597.083 1.285.37 1.772.726.488-.133.968-.043 1.396.221.367.29.915.057.947-.392a3.676 3.676 0 0 1-.514-3.822 3.86 3.86 0 0 1 .596-.922c.28-.328.319-.291.67-.523.77-.48 1.54-.955 2.319-1.42-.117-.51.617-1.338.881-.98a7.895 7.895 0 0 1 1.773-1.07v-.009c.221-.37.33-.765.35-1.2l-.22-.914c.306-.276.444-.682.351-1.086z" style="stroke:none;stroke-width:2;stroke-linejoin:round;stroke-miterlimit:4;stroke-dasharray:none;stroke-opacity:1"/>
</svg>
