<svg width="25" height="20" xmlns="http://www.w3.org/2000/svg"><rect style="fill:#fff;fill-rule:evenodd;stroke:#000;stroke-linecap:round;stroke-linejoin:round" width="24" height="19" x=".5" y=".5" rx="1.5" ry="1.5"/><path style="fill:none;stroke:#000;stroke-width:.5;stroke-linecap:round;stroke-linejoin:round;stroke-miterlimit:3.86369;stroke-dasharray:none" d="M19.882 19.531a.704.704 0 0 1 .07-.252c.2-.405.596-.644.877-.977.056-.423.275-.6.484-.964.293-.045.46-.333.645-.582.517.072.492-.504.74-.781.417.022.63-.315.552-.725h-16v.5H3.616c-.259.087-.266.52-.507.57-.29.205.058.541-.27.765.07.353-.243.693-.596.71-.142.223-.038.552-.33.67-.074.193-.104.453-.357.485"/></svg>